<?xml version="1.0" encoding="UTF-8"?>
<!DOCTYPE svg PUBLIC "-//W3C//DTD SVG 1.1//EN" "http://www.w3.org/Graphics/SVG/1.1/DTD/svg11.dtd">
<!-- Creator: CorelDRAW X5 -->
<svg xmlns="http://www.w3.org/2000/svg" xml:space="preserve" width="8.26772in" height="11.6929in" style="shape-rendering:geometricPrecision; text-rendering:geometricPrecision; image-rendering:optimizeQuality; fill-rule:evenodd; clip-rule:evenodd"
viewBox="0 0 8268 11693"
 xmlns:xlink="http://www.w3.org/1999/xlink">
 <defs>
  <style type="text/css">
   <![CDATA[
    .fil3 {fill:none}
    .fil0 {fill:#0000CF}
    .fil2 {fill:#999999}
    .fil1 {fill:#CCCCCC}
   ]]>
  </style>
   <clipPath id="id0">
    <path d="M920 2633l6427 0 0 6427 -6427 0 0 -6427z"/>
   </clipPath>
      <mask id="id1">
  <linearGradient id="id2" gradientUnits="userSpaceOnUse" x1="3471.81" y1="5078.91" x2="3610.19" y2="4943.33">
   <stop offset="0" style="stop-opacity:1; stop-color:white"/>
   <stop offset="1" style="stop-opacity:0; stop-color:white"/>
  </linearGradient>
       <rect style="fill:url(#id2)" x="3283" y="4773" width="516" height="476"/>
      </mask>
 </defs>
 <g id="Layer_x0020_1">
  <metadata id="CorelCorpID_0Corel-Layer"/>
  <g>
  </g>
  <g style="clip-path:url(#id0)">
   <g>
    <g id="_152744384">
     <path class="fil0" d="M1884 4973c398,490 475,1151 362,1887 76,-809 -125,-1492 -638,-2032l690 141c-66,-182 -196,-348 -362,-510l1346 272c136,269 208,587 214,956 -59,-369 -156,-650 -284,-859l-985 -203c432,558 468,1181 350,1829 43,-498 1,-964 -211,-1368l-482 -113z"/>
     <path class="fil1" d="M3949 4488c-76,85 -153,122 -232,102l-29 73 169 182 65 -17c-8,-90 37,-162 134,-218l-108 -123z"/>
     <path class="fil2" d="M4001 4907l-76 19 -69 -83 65 -17c-4,-101 47,-169 133,-219l74 86c-102,75 -140,122 -127,213z"/>
     <path class="fil2" d="M3441 5082l-281 243 161 -451c76,9 183,-19 377,-157l164 186c-138,117 -193,234 -203,350l-475 109 306 -270 50 11 65 -54 -86 -78 -63 53 -13 59z"/>
     <path class="fil1" style="mask:url(#id1)" d="M3467 5056l-181 161 74 -283 327 -157 108 109 -204 293 -278 67 181 -158c25,-1 39,4 55,-10 16,-14 20,-43 5,-66 -15,-23 -57,-25 -71,-9 -10,12 -17,33 -16,54z"/>
     <path class="fil2" d="M3124 5353c-33,-8 -41,-67 -7,-126 -4,105 28,11 44,-12 70,-135 109,-252 45,-307 -94,-13 -255,162 -282,440 -11,116 64,163 169,130l-19 63c-115,86 -179,217 -225,360 -55,175 -61,284 -1,321 95,34 246,-161 471,-671 -111,317 -227,569 -349,698 -106,94 -185,84 -222,-109 24,-189 59,-378 252,-582 -82,-17 -132,-72 -126,-196 3,-109 41,-227 125,-358 55,-80 117,-132 195,-125 39,15 63,59 60,155 -41,180 -86,321 -130,318z"/>
     <g>
      <g>
       <path class="fil2" d="M5566 5637c0,-12 4,-6 5,-16l-1 4c-1,0 -2,0 -2,0 0,0 -1,0 -1,0 -6,0 -1,0 -1,-1 -2,5 -1,9 -5,11l5 2z"/>
       <path class="fil2" d="M6382 5768c0,4 -1,2 4,2 1,-5 -1,-3 4,-5 9,-3 -2,3 3,0l0 -6c-2,4 -7,6 -11,9z"/>
       <path class="fil2" d="M4137 5819l4 -5c0,0 1,-1 1,-1 4,-4 4,-3 7,-7 -2,1 -1,1 -3,2 0,0 -1,0 -1,1 0,0 -2,1 -2,1 -4,3 1,1 -5,2l-1 6z"/>
       <path class="fil2" d="M4045 5922c4,-2 6,-3 8,-8 -2,1 -1,0 -3,2 -3,3 -1,4 -6,5 1,4 -1,1 2,1z"/>
       <path class="fil2" d="M3731 6008c0,-7 0,-1 -2,-4 0,-6 0,-1 -2,-2 -4,3 -2,2 0,3 1,3 -2,1 3,2z"/>
       <path class="fil2" d="M5615 5701c5,0 0,-1 5,-2 -6,-3 -1,0 -3,-5 -3,6 -2,0 -2,6z"/>
       <path class="fil2" d="M4558 5679c5,0 2,-1 4,1l2 -5c-5,2 -3,1 -5,5z"/>
       <path class="fil2" d="M3835 5805c-3,0 -2,1 -2,-3l-4 7 6 -4z"/>
      </g>
      <g>
       <path class="fil2" d="M3491 5898c5,0 5,1 9,2 5,-8 3,2 5,-8 11,0 6,2 8,-5 10,3 3,-3 14,-5l0 -6c-14,2 -24,13 -31,17 -6,4 -2,-1 -5,5z"/>
       <path class="fil2" d="M3817 5639c5,1 5,3 6,2 10,0 1,1 5,-3l-3 -2c-5,-3 0,3 -2,-2 9,-3 5,-4 8,-7 0,0 1,0 1,-1l4 -3c0,0 -1,-1 -1,-2 -1,-3 0,-2 -1,-5 -4,2 -2,-1 -7,5l-1 2c-6,7 -6,6 -9,15z"/>
       <path class="fil2" d="M3471 5595c4,2 3,-2 3,2 14,0 7,0 11,-9 5,2 -1,3 5,2 2,-4 1,-3 2,-9 -8,3 -5,2 -11,6 -1,1 -4,3 -5,3 -4,3 -3,1 -5,6z"/>
       <path class="fil2" d="M3263 5973c3,-2 4,1 2,-2 -1,-10 -5,-3 -2,-12 -9,0 -2,-2 -8,0 0,-6 -1,-3 2,-5 -7,-8 -5,2 -6,-6l-6 0c3,3 0,1 3,6 6,8 6,7 15,19z"/>
       <path class="fil2" d="M6227 5949c5,-3 5,-3 9,-6l8 -7c4,-3 2,-1 5,-3l4 -4c2,-1 7,-5 9,-6l-11 0c-2,6 -9,7 -12,12 -9,14 -5,6 -13,14z"/>
       <path class="fil2" d="M3654 5628c0,8 11,-3 12,-5 0,0 -3,2 2,-6 -3,0 0,0 -2,-3 -7,0 2,-2 -8,7 -1,1 -2,2 -3,3 -2,3 -1,1 -1,4z"/>
       <path class="fil2" d="M5673 5937c6,-3 21,-14 24,-17 3,-3 1,-2 4,-5 4,-5 7,-3 10,-8l-2 3c-4,0 -2,1 -6,-1 0,0 -1,1 -1,1 0,0 0,1 -1,1l-4 3c0,0 0,0 0,1 0,0 0,1 0,1 -3,5 -6,8 -11,11 -8,7 -3,-2 -7,7l-6 -3c0,0 0,0 0,0 0,0 1,1 1,1 0,0 0,1 0,1l-2 6z"/>
       <path class="fil2" d="M4197 5554c2,-4 2,-2 0,-3 -1,-5 0,-2 -3,-5 -1,-1 -3,-2 -4,-3 -3,-3 -6,-4 -8,-7l0 8c4,1 3,1 5,3l10 11c-1,-2 -1,0 0,-3z"/>
       <path class="fil2" d="M3863 5578c0,0 1,0 1,1l5 4c0,0 0,-2 1,-1l6 -9c0,-5 4,4 0,-2 -4,-6 5,2 -3,-2 -4,1 1,-1 -2,1 -2,1 -1,1 -3,2 -4,3 -3,2 -4,7z"/>
       <path class="fil2" d="M3970 5614l2 -2c5,-5 11,-12 15,-12 -10,-2 5,-1 -8,-3 -1,3 -5,5 -8,9 -5,9 2,5 -2,8z"/>
       <path class="fil2" d="M3679 5599c7,-1 4,-1 9,0 1,-5 1,-6 5,-8l-5 -5c-3,2 -3,1 -6,5 0,0 -2,3 -2,3 -1,3 0,0 -2,4z"/>
       <path class="fil2" d="M5084 6053l8 -3c1,1 -1,4 5,-3 0,0 1,-1 1,-1 0,0 0,-1 1,-1 4,-4 -2,-1 5,-5 -4,1 -7,2 -11,4 -5,3 -6,3 -7,8z"/>
       <path class="fil2" d="M4025 5625c1,1 9,1 3,5 0,-4 1,-10 6,-9 0,0 1,0 1,1 4,2 -4,2 2,2 1,-2 2,-3 2,-4 3,-6 3,-5 3,-5l0 1c-1,-1 -1,-4 -2,-5 -1,2 -5,4 -8,6 -3,3 -6,4 -8,8z"/>
       <path class="fil2" d="M5165 5791c5,-3 2,0 5,-4 3,-5 -1,-1 4,-5l0 -5 -5 0c0,6 3,6 -8,6 5,1 2,0 5,2 -4,6 3,3 -5,5 1,3 -1,1 3,2z"/>
       <path class="fil2" d="M5131 5670c10,-8 7,-2 17,-16 -5,2 -4,0 -8,4 -4,4 -1,3 -7,5 -1,3 -1,4 -2,6z"/>
       <path class="fil2" d="M4974 5867l6 0c-1,6 -3,5 -3,12l3 0c2,-5 -2,-2 3,-5 -2,-6 -2,-3 0,-8l-4 -3c0,0 -2,-2 -1,0l-5 3z"/>
       <path class="fil2" d="M5892 5912c1,-3 2,-3 4,-5 0,-1 3,-3 3,-4 3,-4 1,0 3,-5l-2 5c0,0 -1,-1 -2,-1l-4 -2c-3,7 -4,6 -6,8 0,0 -3,0 1,0l3 5z"/>
       <path class="fil2" d="M5948 5428c2,2 -2,1 5,2 3,0 5,0 7,-1 4,-2 4,-3 4,-8l0 3c-3,0 -7,1 -9,1 -9,3 4,3 -7,3z"/>
       <path class="fil2" d="M5906 5450c6,0 7,-3 12,-7 2,-2 2,-2 4,-3 5,-4 3,-1 4,-4 -6,-3 -2,-4 -2,-4l-2 2c-5,6 -4,6 -10,10l-4 3c-2,2 -1,1 -3,3z"/>
       <path class="fil2" d="M5813 5423c7,-5 5,-5 9,-6 -2,-9 2,0 0,-9 -2,1 0,-1 -3,2 0,0 -2,4 -2,4 -3,4 -3,5 -4,10z"/>
       <path class="fil2" d="M3247 5712c4,2 3,-2 3,2 3,0 0,0 2,3 3,-2 2,-1 4,-4 2,-3 2,-2 2,-7 -9,1 -5,3 -11,6z"/>
       <path class="fil2" d="M5213 6230c2,-1 0,1 3,-2 1,-1 3,-3 4,-4 2,-3 3,-6 6,-8 -4,-2 -3,2 -3,-2 -1,2 -1,2 -4,4 -6,5 -2,1 -4,7 -1,3 -2,4 -4,4l2 0z"/>
       <path class="fil2" d="M5162 5931c1,-2 6,-5 8,-6 1,-1 4,-2 5,-3 4,-3 2,-1 5,-6 -3,3 -4,3 -6,7l-6 -5c0,12 1,2 -5,6l0 6z"/>
       <path class="fil2" d="M4115 5755c2,-2 2,-4 5,-8l2 -3c0,0 1,-1 1,-1l-6 0c-1,10 2,5 -5,6 0,2 2,4 1,5 -4,4 -1,0 -2,0 6,2 0,0 5,2z"/>
       <path class="fil2" d="M4918 6171l3 -3 6 2c0,0 1,3 2,1 0,0 0,0 1,0 0,-10 0,-4 4,-11 1,-2 1,-1 2,-3 -4,2 -4,4 -9,7 -4,2 -6,3 -8,7z"/>
       <path class="fil2" d="M5360 5763c5,-2 9,-5 14,-10l3 -4c-6,1 -13,7 -17,14z"/>
       <path class="fil2" d="M5126 6174c6,0 3,2 7,-3 0,0 1,-2 1,-2l3 -3c-2,1 -3,-1 -3,-3l-5 5c-2,3 -2,2 -3,6z"/>
       <path class="fil2" d="M4324 5831c0,0 1,0 1,0 0,0 1,0 1,0 5,-4 4,-5 5,-9 -3,3 -7,4 -9,5 0,0 -1,0 -1,1l-2 2c-1,1 -1,-4 -1,1l6 0z"/>
       <path class="fil2" d="M4068 5855c0,0 -4,1 -5,2 -3,0 0,0 -2,-3 -5,3 -1,-1 -5,4 0,0 0,1 -1,1l-2 2c0,0 0,0 0,0 0,0 0,0 0,0 6,7 2,9 2,10 -1,7 -1,-3 1,2l0 -9 7 -4c0,0 1,0 1,-1 2,-2 1,0 3,-3z"/>
       <path class="fil2" d="M5675 5884c4,-1 4,-1 8,-2 1,-4 2,-7 6,-8 4,0 0,1 0,1l3 -5 -16 8c-1,1 -1,4 -2,5z"/>
       <path class="fil2" d="M3646 5717c4,-2 12,-11 17,-14 -6,2 -2,1 -9,0 1,9 0,1 2,6 -7,0 -4,2 -8,0 0,3 0,5 -2,8z"/>
       <path class="fil2" d="M5101 6207c4,1 2,0 5,2 0,-6 1,-7 6,-8 -4,-3 -2,3 -3,-6 -2,4 -7,8 -8,12z"/>
       <path class="fil2" d="M4206 5700c4,3 3,-5 3,3 3,0 2,0 4,-1l2 -2c0,-10 -2,-8 6,-12 -6,2 -2,-1 -9,7 -2,3 -3,4 -7,6z"/>
       <path class="fil2" d="M4446 5653c3,-3 0,0 3,-3l4 -4c0,0 1,0 1,-1 -5,-2 -2,2 -4,-3 -3,-7 0,-1 0,-1 0,0 0,0 0,0 -8,3 5,2 -6,3l2 9z"/>
       <path class="fil2" d="M3510 5692c4,-9 -3,4 1,-2 1,-2 1,-1 2,-2 1,-1 4,-3 6,-5 -1,-3 -1,-2 -5,-3 2,5 -1,6 -6,5 0,3 0,5 2,8z"/>
       <path class="fil2" d="M4049 5653c5,1 1,0 3,0 0,0 0,-1 5,-1 2,-3 -1,-1 5,-2l-2 -3c-5,0 -5,2 -11,2l0 5z"/>
       <path class="fil2" d="M4853 6232c5,-4 3,0 3,-6 6,1 3,0 6,2 1,-3 3,-4 3,-8 -4,0 1,-2 -2,1 -8,5 -6,4 -7,7l-3 0 0 5z"/>
       <path class="fil2" d="M5832 5391c4,2 3,-2 3,2 0,0 3,-1 5,-5l0 -2c2,-3 1,0 2,1 -8,-5 -1,2 -5,-5 -1,3 -2,2 -3,4 -3,4 0,2 -3,5z"/>
       <path class="fil2" d="M4913 6406l2 2c0,0 1,1 1,1 3,4 -4,0 2,2 1,-10 0,0 3,-6 0,0 2,-5 2,-5 -3,0 -1,0 -4,2 -2,2 -3,2 -5,5z"/>
       <path class="fil2" d="M5875 5932c3,-2 4,-4 6,-7 2,-3 4,-5 5,-9 -4,2 -5,6 -8,9 -3,3 -2,2 -6,3 9,4 -1,-5 3,3z"/>
       <path class="fil2" d="M4062 5650l0 5c-5,3 -6,7 -9,9 5,2 2,-1 5,3 0,-7 -1,-4 5,-5 -7,-3 -1,1 -3,-6l8 -7c5,-4 1,-1 3,-1 -7,-1 -8,-4 -8,2z"/>
       <path class="fil2" d="M4037 5690l6 -2c0,-1 1,-5 1,-5 0,0 0,0 -1,-3 -3,1 -2,0 -4,2 -3,4 -1,2 -2,7z"/>
       <path class="fil2" d="M5141 6319c4,1 0,2 3,-1 3,-2 1,-1 3,-3 2,-3 3,-4 6,-7 -13,3 -4,7 -12,9 4,2 -1,-2 2,2z"/>
       <path class="fil2" d="M4006 5596c0,2 -3,2 3,2 2,0 4,-1 5,-1 4,-3 3,-4 3,-10l-3 0c0,4 1,5 0,8l-2 1c0,0 -1,0 -1,0l-4 1z"/>
       <path class="fil2" d="M4854 5580c3,1 0,2 6,0 8,-3 2,0 3,-3 0,-4 -1,-3 2,-3 -1,1 1,5 -3,0 -4,-5 -1,-2 0,-3 0,0 0,0 -1,1 -2,9 6,-5 -3,3l-2 2c-3,3 -2,0 -3,3z"/>
       <path class="fil2" d="M6140 5644c3,0 2,0 3,-1l1 -1c3,-2 4,-1 5,-9 -4,5 5,-4 -3,3 -6,5 -3,2 -6,8z"/>
       <path class="fil2" d="M5977 5585c4,3 3,-4 3,3 1,-1 -6,1 1,-1 0,0 1,0 1,0 3,-1 -1,1 1,-5l1 -1c3,-2 1,-1 1,0l-3 -5c-3,4 -3,4 -5,8z"/>
       <path class="fil2" d="M6015 5786c6,0 3,0 5,-1 3,-2 1,-1 1,-3l-1 -4c0,-2 0,0 -1,-2 0,2 1,1 -2,3 -8,5 -1,2 -3,0 0,3 -1,1 3,2 -2,6 0,1 -3,6z"/>
       <path class="fil2" d="M5619 5898c2,-2 4,-8 6,-9l-6 0c-2,5 2,2 -3,5 0,0 2,1 2,1 3,4 0,-1 1,3z"/>
       <path class="fil2" d="M4454 5527c0,-4 2,1 -1,-3 -2,-3 -5,-5 -9,-5l0 5c7,0 2,0 7,2 3,2 0,3 3,1z"/>
       <path class="fil2" d="M6249 5786c3,-1 2,-1 4,-3 2,-2 2,-3 3,-4 -4,0 -3,1 -3,-2 3,3 -1,3 -5,3 0,0 0,2 0,2 -3,9 7,-3 -2,3l2 2z"/>
       <path class="fil2" d="M5343 5779c11,-4 7,-6 14,-9l-5 0c0,0 0,-1 0,-1l-5 4c-2,-4 -1,1 -2,-5l2 8 -5 3z"/>
       <path class="fil2" d="M4839 5692l5 -3c-1,5 -3,5 0,5 1,-4 0,-4 5,-5 -1,-3 0,0 -2,-3 -4,0 2,-2 -5,0l-2 4c0,0 -1,1 -1,1 0,0 -1,1 -1,1z"/>
       <path class="fil2" d="M3900 5783c6,-2 2,0 7,-4 2,-2 1,-2 4,-3l-8 0c-1,8 1,2 -3,8z"/>
       <path class="fil2" d="M4087 5572c0,0 4,1 5,2 -1,5 -3,2 3,2 1,-8 -1,-2 3,-8 -5,2 -7,4 -11,5z"/>
       <path class="fil2" d="M6046 5668c1,-1 2,-2 3,-3 2,-3 2,-2 2,-4 0,0 -5,2 -6,2 0,3 0,3 2,6z"/>
       <path class="fil2" d="M5177 6098l6 0c1,-7 -2,-2 3,-8 -4,2 -2,0 -6,4 -3,3 0,2 -3,4z"/>
       <path class="fil2" d="M5103 5695c1,0 4,3 8,-9 -3,4 -6,2 -8,9z"/>
       <path class="fil2" d="M5844 5377c4,-4 -1,-3 8,-3 1,-8 1,-1 2,-8 -2,3 -2,1 -5,4 -1,1 -3,5 -4,7z"/>
       <path class="fil2" d="M6129 5650c7,4 -6,-5 2,2 2,-3 1,-2 5,-3l0 -3 -5 0c-1,1 -1,4 -2,5z"/>
       <path class="fil2" d="M5131 5833c4,-2 3,0 6,-3 3,-3 2,-2 3,-6 -5,4 0,3 -6,3 -1,5 0,1 -3,6z"/>
       <path class="fil2" d="M3601 5617l6 -5c-7,-1 1,-1 -8,-2 1,7 0,2 2,6z"/>
       <path class="fil2" d="M5250 5582c2,1 -3,2 5,0 0,0 0,0 0,0 0,0 0,0 0,0 2,-3 2,-3 4,-3l-5 -2 -3 5z"/>
       <path class="fil2" d="M4848 5870c3,-2 5,-5 6,-9 0,8 1,0 -3,3l-5 -2c3,7 3,-1 2,8z"/>
       <path class="fil2" d="M6146 5746c2,1 -4,7 5,-1 2,-1 1,0 1,-2 -4,-1 1,-1 -3,1 0,0 -3,2 -3,3z"/>
      </g>
      <g>
       <path class="fil2" d="M5186 6091c-5,6 -2,0 -3,8l-6 0c-2,5 1,0 -3,5 -3,4 0,0 -3,3 -3,4 -3,5 -6,8 -4,6 -7,9 -11,15 -2,3 -2,6 -4,8 -4,6 -1,-2 -11,15l-4 5c-2,3 0,-1 -2,4 0,2 1,4 3,3l-3 3c0,0 -1,2 -1,2 -4,5 -1,3 -7,3 -4,2 -6,5 -8,9l-9 11c1,9 -1,3 3,6 -5,1 -6,2 -6,8 -3,-1 -1,0 -5,-2 -12,11 -17,22 -25,32 -6,6 -1,-2 -8,9 -6,11 -7,4 -18,22 -8,13 -5,5 -11,12l-21 25c-2,2 -4,3 -5,5 -14,16 -14,12 -22,23 -3,5 -1,3 -6,6 -7,5 -24,25 -36,34 -9,7 -13,12 -18,16 -3,3 -2,1 -4,2 -3,3 -1,0 -4,4 0,0 -2,5 -2,5 -3,6 -2,-4 -3,6 -6,-1 1,2 -2,-2 0,0 -1,-1 -1,-1l-2 -2 -21 14c-3,3 -5,5 -10,8 -2,1 -3,2 -5,3 -1,1 -5,3 -6,3 -9,6 2,2 -10,7l-30 14c-4,2 -2,1 -6,3 -9,3 -40,12 -46,-4 -3,-8 -3,-15 0,-22 1,-4 3,-9 5,-12 3,-6 3,-2 6,-11 1,-3 3,-10 5,-14 2,-3 1,-1 3,-4 4,-6 10,-22 16,-28 3,-3 5,-6 7,-10l13 -21c3,-4 5,-5 8,-9 2,-3 1,-3 3,-6 4,-5 6,-4 12,-15 3,-5 11,-16 16,-20 0,0 1,0 1,-1l49 -52c4,-3 4,-5 8,-9 11,-11 3,1 17,-17 4,-5 14,-12 19,-15 6,-4 2,-5 18,-17 14,-10 17,-17 33,-26l14 -12c5,-5 19,-14 26,-18 6,-3 34,-26 45,-33 9,-6 9,-4 21,-13l16 -11c6,-3 10,-4 13,-7 12,-13 0,2 14,-10l15 -10c9,-4 31,-18 39,-22l6 -3c3,-2 3,-1 8,-2 0,8 -6,15 -11,20 0,0 -1,1 -1,1 -6,7 -4,4 -7,12 -1,2 -2,3 -3,5l-21 30c-2,2 -3,4 -4,5 -5,8 -4,9 -3,12zm796 -514l3 5c-1,-1 1,-3 -1,0l-1 1c-2,5 2,4 -1,5 0,0 -1,0 -1,0 -7,2 0,0 -1,1 0,-8 1,0 -3,-3l-24 28c-7,8 -19,23 -23,31 -5,10 -7,11 -13,18 -7,9 -4,9 -8,14l-35 36c-6,5 -8,4 -15,12 -13,15 -26,24 -36,35l-29 26c0,0 -2,2 -2,2 -1,1 -1,1 -3,2 -7,6 -6,4 -12,10l-12 10c-11,8 -2,5 -15,13 -4,3 -5,4 -10,7 -5,3 -6,5 -10,9 -3,3 -5,6 -9,8 -8,6 -3,1 -11,9l-18 14c0,0 -1,0 -1,1l0 2 -3 5c0,0 4,-1 0,-1 -5,0 -5,3 -6,8 -4,0 -4,1 -8,2 -6,0 -22,15 -29,19 -15,7 -15,15 -34,15 0,-11 6,-12 8,-20 -1,-4 1,1 -1,-3 0,0 -2,-1 -2,-1 5,-2 1,0 3,-5l6 0c3,-10 13,-21 17,-30 2,-5 1,-6 4,-11 9,-14 2,-6 13,-20l5 -8c9,-19 9,-10 17,-28 2,-5 3,-7 5,-10 4,-7 5,-2 13,-17 1,-1 2,-4 3,-5 3,-7 4,-8 9,-14l9 -13c11,-12 2,-5 10,-14 3,-3 5,-6 7,-9 8,-11 -3,1 13,-17 4,-5 0,-3 10,-13l36 -40c0,0 1,-1 2,-1 0,0 1,-1 1,-1 0,0 2,-4 10,-9 3,-2 6,-5 9,-7 4,-2 22,-1 29,-2 0,-2 0,-4 0,-6 0,-6 0,-2 -2,-7 -1,-2 0,-2 -1,-4l-6 -16c-6,-9 -14,-19 -22,-27 0,0 -1,-1 -2,-1 -9,-8 -2,-4 -13,-10 -3,-2 -5,-4 -8,-6 -12,-7 -23,-12 -39,-6 -5,2 -4,2 -5,3l-2 1c-7,6 -17,12 -23,19l-28 31c0,0 -3,3 -3,3 -6,5 -7,6 -10,13 -2,4 -15,17 -20,24 -7,10 -8,8 -13,16l-32 46c2,5 -3,1 3,5 -6,1 -1,1 -5,2 -7,4 -6,6 -13,19 -3,5 -11,12 -14,17 -2,3 -3,6 -5,11 -2,5 -3,6 -6,9 -9,12 -7,13 -11,20 -3,4 -4,3 -7,9 -2,5 -3,6 -6,10l-11 20c-7,12 -18,36 -24,38 -4,0 -9,0 -12,0 -4,0 -21,8 -27,10l-18 7 -20 5c0,-10 5,-18 10,-26l17 -31c8,-18 9,-15 16,-32 2,-4 2,-4 5,-8l8 -15c4,-7 4,-11 9,-17l-3 -2c2,-3 2,-2 1,-3l-8 -2c-18,-1 -67,0 -88,0 -5,0 -10,-1 -15,0 -2,0 -9,3 -12,3 2,4 -4,3 6,3 -3,4 0,1 -5,3l-18 33c-4,4 -5,6 -7,12l-22 40c-7,17 -18,28 -29,52 -3,8 -1,3 -6,11 -4,6 -3,5 -8,12 -6,7 -7,15 -15,28 -3,5 -10,12 -14,14 -6,3 -3,-2 -12,5l-54 28c-5,2 -2,0 -6,3 -11,8 -9,6 -22,14l-11 6c-12,6 -23,12 -35,20l-11 7c-5,3 -7,2 -10,7 -7,4 -1,0 -5,5 0,0 0,1 -1,1 0,0 -1,1 -1,1 -6,7 -4,4 -5,3l-8 3c-4,0 3,-4 -10,4 -10,6 -6,5 -14,9 -9,5 -26,15 -32,22 -4,4 -27,18 -34,22 -2,1 -4,4 -13,10l-12 9c-8,7 7,-5 -2,1 -2,2 -2,2 -4,3l-27 22c-1,2 0,1 -2,3 -4,7 -4,1 -4,11 0,0 0,0 -1,0 -1,2 -1,-1 -2,-1l-6 -2 -3 3c-3,4 -19,15 -26,22 -5,5 -9,5 -13,10 -2,2 -9,12 -12,13 -3,0 0,0 -2,3 0,4 -2,5 -3,8 -3,-2 -1,0 -6,-2 -1,6 2,2 -3,6 -5,0 -7,4 -9,6 -2,2 -3,2 -4,4 -2,2 -3,3 -4,5l-25 28c0,0 -1,1 -2,2l-45 56c-2,3 -2,4 -3,6 -3,5 -3,1 -7,10 -2,5 -1,2 -4,6 -5,6 -3,6 -6,11 -2,4 -4,6 -7,11l-9 17c-6,15 -16,45 -18,61 -1,13 0,39 3,49 3,9 8,14 14,20 0,0 1,1 1,1 24,24 64,28 95,19 6,-1 9,-1 15,-2 5,-1 9,-2 13,-4 5,-2 9,-3 14,-5 10,-3 15,-7 24,-10 4,-2 9,-3 13,-4 4,-2 9,-7 24,-12 5,-2 1,0 6,-2l15 -11c9,-5 6,-3 17,-10 2,-1 3,-3 5,-4 4,-3 5,-5 10,-7 4,-2 8,-4 11,-6 4,-3 5,-6 10,-9l6 -4 34 -27c4,-3 6,-5 9,-8l13 -12c1,-1 3,-3 5,-4 4,-4 6,-6 10,-9 12,-10 16,-19 26,-26l17 -18c5,-7 4,-4 9,-8 4,-4 1,-5 7,-10 3,-3 4,-4 6,-8 2,-3 0,0 2,-4 -2,-4 3,0 -2,-2 8,-3 -1,-6 12,-9l31 -38c3,-6 22,-27 26,-33l3 -5c0,0 1,-1 1,-1l-2 0c1,-1 3,-1 4,-4 1,-6 -3,-2 4,-7 2,-2 2,-2 4,-4 0,3 -1,0 3,2l25 -35c3,-4 4,-8 8,-12 10,-13 10,-19 14,-22 12,-13 3,-4 10,-13 2,-3 1,-1 2,-2 4,-4 4,-4 6,-10 3,-8 5,-9 11,-17 5,-8 3,-7 8,-12l33 -52c7,-13 15,-23 24,-41 1,-2 1,-2 2,-3 4,-8 35,-56 36,-60 2,-8 13,-21 16,-23 3,-2 10,-4 15,-6 7,-2 5,-4 17,-8 13,-5 28,-10 39,-17 3,-2 11,-5 15,-5 5,0 2,5 2,13 -4,1 -1,0 -5,2 0,9 -1,11 -4,18 -3,9 -4,27 -3,38 1,6 1,3 3,8 3,7 8,15 14,20 12,12 6,5 15,13 0,0 1,1 1,1 4,3 3,3 9,5 16,3 20,8 38,2 18,-6 28,-8 45,-21 8,-6 6,-1 23,-16 1,-1 3,-2 3,-3 3,-2 5,-2 7,-3 3,-1 3,-3 6,-5 6,-5 10,-6 12,-11l2 -6c0,0 0,-1 0,-1 0,0 0,-1 -1,-1 0,0 0,0 0,0l6 3c4,-9 -2,-1 7,-7 4,-3 8,-7 11,-11 0,0 0,-1 0,-1 0,0 0,0 0,-1l4 -3c0,0 1,-1 1,-1 0,0 0,-1 1,-1 4,2 2,1 6,1l2 -3c3,-2 33,-29 36,-34 4,-5 3,-3 8,-6l7 -7c0,0 1,-1 1,-1 8,-8 17,-14 21,-19 7,-10 7,-7 17,-17l2 -2c0,0 2,-2 2,-3 3,-3 4,-4 7,-7 2,-1 2,-1 3,-3 4,-4 5,-7 11,-11 -3,11 -5,10 -7,15 -2,4 0,4 -3,8 0,0 -1,1 -1,2 0,0 0,1 -1,1l-3 5c-4,6 -6,7 -9,15 -1,2 -1,3 -1,3 0,0 -1,2 -1,2 0,0 0,1 0,1 -3,7 -2,4 -6,12l-7 12c-6,9 -5,11 -7,17 -1,3 -2,4 -3,8 -2,5 -1,4 -3,9 -2,3 -3,4 -3,8l-3 10c-3,13 -2,28 2,38 6,13 13,24 23,34 13,14 7,11 28,18 17,6 17,2 26,-3 -2,-6 -3,-4 -5,-12 -4,-17 1,-19 3,-23 4,-7 1,-6 11,-20 3,-4 17,-22 17,-25 -4,-8 5,0 -3,-3 4,-1 3,0 6,-3 3,-3 4,-7 8,-9l6 -5 -3 -5c-4,0 -1,0 -1,0 1,-2 3,0 6,-8l4 2c0,-1 1,1 2,1l2 -5c5,0 1,0 5,-3 11,-9 2,-1 9,-9 0,0 1,-1 1,-1l33 -36c16,-12 4,-3 15,-14 3,-4 4,-4 8,-6l19 -17c8,-7 -6,5 2,-1l17 -16c5,-4 6,-5 6,-8 3,-5 1,0 3,-6 -4,0 -3,1 -3,-2 2,1 -5,5 3,0 3,-2 1,0 2,-3 1,2 1,1 1,2l1 4c7,-3 6,-3 11,-8 2,-2 23,-17 30,-23 3,-3 1,-2 6,-5l5 -4c0,0 1,-1 1,-1l3 -3c6,-5 35,-27 37,-28 9,-9 23,-19 33,-26 3,-2 6,-2 8,-4 4,-3 2,-4 5,-6 6,-4 -2,4 15,-10 2,-2 5,-3 7,-5 3,-2 3,-3 6,-5 4,-3 30,-20 36,-23 9,-4 12,-7 16,-9 -1,10 0,-1 -11,14l-8 10c-3,5 -3,0 -1,5l0 6c-4,4 5,3 -5,3 0,1 1,3 2,5l116 0c-2,4 -2,1 0,6 1,-3 2,-4 5,-8l1 -2c6,-7 3,-6 7,-11l13 -14c5,-5 9,-9 12,-15l5 -6c11,-13 28,-20 10,-55 -5,-10 -2,-7 -5,-12 -3,-6 -5,-4 -9,-9 -7,-8 -15,-19 -31,-22 -17,-3 -39,10 -53,17 -6,3 -5,5 -11,8 -17,9 -6,4 -16,10 -5,3 -8,3 -16,10 -6,5 -35,23 -37,25l-3 3 -22 17c-4,3 -10,6 -20,16 -5,4 -6,4 -12,8 -1,8 -1,7 -5,9l-1 1c-2,1 -1,1 -3,1l-5 2 0 3c-4,1 -3,0 -5,3 -7,-7 5,2 -2,-2 -3,0 0,-2 -6,3 -9,8 -7,4 -18,15 -5,5 -6,6 -12,10 -3,2 -4,3 -6,5 -6,4 -3,2 -6,6l-38 33c-15,12 -13,10 -25,23 -11,12 -37,33 -54,50l-20 19c-2,1 -3,2 -4,2 3,-12 2,-3 8,-16 2,-3 1,-2 3,-4l32 -46c9,-12 18,-24 29,-35l9 -14c6,-11 17,-21 17,-21 3,-4 -1,-4 7,-11 -1,-3 -1,-3 -2,-6 1,0 6,-2 6,-2 4,-2 7,-5 10,-10 3,-5 5,-3 13,-15 1,-1 1,-2 2,-3l18 -18c0,0 1,-1 1,-1 7,-6 17,-17 27,-18 11,-1 8,2 17,-3 0,-28 -12,-33 -20,-45 -2,-3 -2,-4 -4,-7l-10 -9c-15,-12 -35,-26 -54,-21l-23 14c-12,8 -1,5 -18,20 -8,7 -21,27 -28,30z"/>
       <path class="fil2" d="M4070 5641c2,-2 6,2 2,1 0,0 -4,2 -2,-1zm494 34l-2 5c-2,-2 1,-1 -4,-1 -2,2 -3,2 -5,4l-5 6c-2,3 -2,2 -4,5 -1,1 -1,2 -2,3 -3,3 0,0 -3,3 -4,4 -6,6 -10,10l-11 12c0,0 -1,1 -1,1l-8 9c-7,9 -6,4 -10,10l-8 12c-9,11 -19,23 -27,36 -4,7 -24,27 -31,31 -12,7 -5,4 -12,10 -6,5 -5,3 -10,10 -3,4 -2,3 -6,5 -2,1 -1,0 -3,2 -4,3 -2,4 -8,7 -6,4 -10,5 -18,13l-24 18c-6,4 -9,8 -17,12 -17,8 -2,4 -19,12l-27 15c-13,4 -7,-8 -4,-15 8,-19 27,-56 38,-72 3,-4 1,0 3,-5l-6 0c0,-6 0,0 1,-1l2 -2c0,0 1,-1 1,-1 2,-2 6,-2 9,-5 2,-1 1,0 3,-3l17 -28c8,-16 8,-11 15,-21l43 -64c6,-6 1,-5 7,-12 4,-4 4,-4 8,-9 2,-3 2,-3 4,-5l19 -28 -2 -9c12,-2 -2,0 6,-3 0,0 0,0 0,0 -1,1 -4,-6 0,1 2,5 -1,1 4,3l10 -14c16,-19 39,-28 25,-63 -2,-4 -10,-22 -13,-24l-9 -9c-1,-1 -2,-2 -3,-3 -5,-4 -3,-3 -9,-5 -2,2 1,1 -3,-1 -4,-2 0,-2 -7,-2l0 -5c-14,-6 -41,9 -55,17 -6,3 -3,2 -6,6l-22 16c-10,10 -16,12 -22,16l-13 12c-8,10 -14,14 -25,23 -19,16 -18,16 -32,30l-13 12c-9,9 -14,12 -17,14l-17 18c-3,3 -3,1 -3,5 -8,4 -6,2 -6,12l-2 2c-2,1 -1,1 -4,1 0,-8 1,0 -3,-3 -2,3 -2,3 -4,5 -3,3 0,1 -2,2 0,0 -2,2 -3,2 -2,1 -3,3 -5,5 -8,9 0,1 -10,10l-2 2c0,0 -1,1 -1,1 0,0 0,1 -1,1l-26 28c-4,4 -4,6 -9,10l-5 4 -20 22c-6,6 5,-4 -2,1l-40 44c-7,8 -3,4 -8,11 0,0 -1,1 -2,3 -2,4 0,-1 -1,2 -2,2 -1,1 -3,3 0,0 -1,0 -1,1l-7 4 0 9c-2,-5 -1,4 -1,-2 0,-1 3,-3 -2,-10 0,0 0,0 0,0 0,0 0,0 0,0l2 -2c0,0 0,-1 1,-1 4,-5 0,-2 5,-4 4,-2 -3,4 3,-4 3,-4 1,1 3,-6 5,-18 8,-20 18,-38l7 -12c3,-5 1,-8 6,-13 3,-3 2,-1 4,-5 1,-1 1,-1 1,-3l7 -11c2,-4 1,-1 2,-5 -4,-1 1,0 -5,-2 1,1 -2,4 2,0 1,-1 0,-4 -1,-5 7,-2 4,4 5,-6l6 0c2,0 2,2 2,-2l7 -11c3,-4 4,-7 7,-12 6,-9 28,-39 28,-39 3,-5 -1,-2 4,-7 3,-4 5,-6 9,-10 4,-5 4,-8 8,-12 10,-12 3,-4 8,-11l14 -15c3,-3 2,0 5,-4 9,-10 10,-17 7,-29 -1,-4 -4,-12 -6,-15 -8,-12 -3,-8 -6,-12 -3,-4 -1,0 -5,-4 -4,-5 1,-3 -7,-6 -1,3 -1,1 0,3l-10 -11c-2,-1 -1,-1 -5,-3l0 -8c-15,-5 -22,-6 -37,0 -8,3 -7,5 -11,7l-7 4c-12,7 -3,0 -14,9 -16,13 -15,7 -14,12 -4,6 -2,0 -3,8 -6,0 -4,4 -3,-2 -1,-1 -4,-1 -5,-2 -12,16 -30,24 -39,34 -5,5 -2,3 -7,5 0,1 1,3 2,5l0 -1c0,0 -1,-1 -3,5 0,0 -1,2 -2,4 -7,0 2,0 -2,-2 0,0 -1,0 -1,-1 -5,-1 -6,5 -6,9 6,-3 -2,-4 -3,-5l-12 11c-3,2 -3,2 -6,5l-7 7c0,0 -1,1 -2,1 -2,2 -2,1 -3,3 -13,12 -1,-4 -19,17 -1,1 -20,17 -25,22 -3,4 -1,2 -5,6 -1,1 -2,1 -3,3l-1 2 -78 74c-1,1 -3,2 -3,3l-17 19c0,0 -1,1 -1,1l-4 5c-1,1 -2,2 -3,3l-6 4 4 -7c4,-8 11,-15 16,-23 4,-8 12,-20 19,-25l-5 -8 -123 0c1,9 -3,6 3,8 -11,1 -6,2 -6,2 -7,3 -5,0 -8,5 -3,4 -2,5 -3,6 8,0 3,0 5,2 -11,21 -7,8 -15,24 -4,8 -16,24 -24,43l-16 31c0,0 0,1 -1,1 -1,2 -1,2 -2,3 -2,5 -5,8 -7,12 -7,22 -2,-4 -10,24 -5,19 -10,34 -5,55 1,4 9,16 12,20l3 5c4,8 3,4 8,7 0,0 1,0 1,1 6,4 -1,5 20,15 6,3 12,7 18,8 5,1 15,-4 16,-11 -5,-1 -2,1 -3,-2 -2,-1 -4,0 0,-3 0,-10 0,-15 3,-22l9 -16c10,-12 14,-19 20,-28 4,-5 22,-22 28,-32 8,-12 7,-9 17,-20l23 -25c5,-5 5,-7 7,-10l3 -3c6,-5 7,-8 12,-13l18 -18c5,-5 1,1 10,-9l21 -24c4,-6 2,0 3,-8l8 0c8,-11 11,-12 18,-18 1,-1 1,-1 3,-2 2,-2 2,-2 4,-4 3,-3 5,-5 9,-9 7,-7 10,-11 17,-15 0,0 30,-28 34,-30 5,-2 1,2 5,-2 2,-2 4,-7 12,-12 9,-5 7,-5 13,-10 11,-11 19,-9 23,-20l0 -5c6,0 6,-1 11,-2l2 3 0 0c0,-6 0,-2 8,-2 -1,-1 3,-3 -3,1l-8 7c2,7 -4,3 3,6 -6,1 -4,-3 -5,5 -3,-5 0,-1 -5,-3 -2,5 -1,4 -4,8 -2,2 -2,2 -3,3 -3,4 -1,0 -3,5 1,3 1,2 1,3 0,0 -1,4 -1,5l-6 2c-3,0 0,-4 -7,7 -1,2 -2,3 -3,5 -6,11 -6,7 -10,14 -7,13 -3,7 -12,20 -2,3 -17,35 -24,43 -2,3 -1,-1 -3,4 -4,6 0,4 -8,17l-8 17c-1,1 -2,3 -3,5 -6,11 -2,9 -10,24 -6,11 -10,32 -12,38 -4,10 -1,19 2,28 6,15 4,11 12,21 2,3 2,2 3,5 6,11 4,3 13,13 4,4 0,1 4,4 1,1 4,2 5,3 25,14 34,1 52,-14l18 -22c-3,0 -1,3 -2,-1 5,-1 3,-2 6,-5 2,-2 1,-1 3,-2 2,-2 4,-4 6,-6 5,-6 8,-12 15,-18 10,-8 2,-3 9,-12l21 -24c13,-16 25,-27 27,-29 3,-3 2,-4 6,-7l1 -6c6,-1 0,1 5,-2 0,0 2,-1 2,-1 0,0 1,-1 1,-1 2,-1 1,-1 3,-2 6,-6 4,-6 14,-15l12 -13c7,-6 11,-14 18,-19 7,-6 8,-6 16,-15 5,-6 19,-17 27,-26 0,0 1,-1 1,-1 6,-6 14,-11 19,-18 5,-7 11,-11 18,-15 14,-9 9,-10 21,-19 4,-3 8,-5 11,-9 4,-4 8,-7 12,-10 0,8 -5,11 -9,17l-17 22c-7,7 -11,17 -16,24l-18 27c-9,12 -15,26 -24,38 -2,3 -3,5 -4,8l-14 26c-2,3 -3,7 -9,17 -8,12 -15,32 -21,46 -2,5 -2,6 -3,11l-6 13c-10,21 -3,51 9,69 7,10 17,20 27,27 21,15 52,6 72,-6 3,-2 5,-4 8,-6 5,-2 4,-1 8,-4 19,-13 38,-23 54,-40 5,-6 14,-9 20,-15 0,0 1,-1 1,-1 9,-9 12,-9 25,-23l13 -9c0,13 -3,27 1,37 6,17 19,41 31,53 4,4 6,6 10,10 7,7 4,5 13,8 14,6 20,3 35,0 10,-2 19,-10 27,-15 8,-6 18,-9 26,-16 7,-6 21,-12 30,-21l30 -22c4,-2 3,-2 6,-5 1,-1 1,-1 3,-2 9,-8 18,-14 28,-20 8,-5 5,-5 10,-10 5,-5 13,-8 18,-13 11,-10 25,-18 34,-29 2,-3 3,-3 6,-5l23 -19c3,-3 2,-2 5,-4 9,-6 8,-14 18,-16 6,-2 2,1 6,-6l8 0 0 -8c41,0 86,-2 126,2 3,-6 1,-3 5,-7l4 -5c10,-11 11,-18 20,-27 8,-7 3,-2 8,-9 4,-5 8,-6 16,-15 4,-4 2,-4 7,-8l3 -3c7,-7 7,-9 17,-15 0,-17 -10,-37 -20,-48l-2 -2c-5,-5 -3,-4 -6,-8 -3,-4 -5,-4 -10,-7 -8,-5 -12,-12 -26,-8 -8,2 -35,21 -41,27 -9,9 -7,5 -15,14l-12 10c-7,6 -7,6 -9,11 2,3 0,0 2,3 -4,1 -4,0 -5,5 -3,0 -2,1 0,-5l-5 3c-4,0 -12,9 -15,12 -1,1 -1,1 -2,3 -3,3 -5,6 -9,8l-18 15c-8,7 -23,21 -27,24 -8,5 -8,7 -14,12 0,0 -1,1 -1,1 -2,2 1,0 -3,2 -3,2 -2,0 -5,2l-14 12c-5,3 -6,2 -11,6 -12,11 -2,5 -19,15 -2,1 -3,2 -5,3l-7 5c-15,12 -27,18 -37,27 -4,3 -6,4 -10,7 -5,3 -5,4 -10,8l-30 20c-11,5 -18,12 -32,19 -5,3 -5,5 -9,8 -4,2 -7,3 -11,6 -10,6 -8,10 -24,10 0,-15 9,-13 10,-22 1,-3 -1,0 1,-4l23 -39 27 -37c8,-11 8,-15 17,-24 9,-9 5,-8 9,-11 3,-3 2,-1 6,-5l24 -28c8,-8 0,-5 14,-17l10 -10c11,-9 0,5 15,-16 6,-8 6,-3 11,-9 2,-3 1,-3 5,-6 2,-1 5,-3 7,-4 5,-4 4,-8 9,-11 10,-5 1,2 13,-9 3,-3 8,-7 12,-9 10,-6 1,-4 18,-13l12 -9c0,0 1,-1 1,-1 11,-9 26,-16 37,-24 3,-2 3,-3 6,-4l7 -3c4,-2 3,-1 7,-4 6,-4 7,-5 13,-7 7,-3 11,-4 14,-9 0,-3 -1,0 3,-3l2 -2c9,-9 1,5 3,-3 0,-1 0,-1 1,-1 -1,1 -4,-1 0,3 4,5 2,1 3,0 -3,0 -2,0 -2,3 4,-1 18,-4 23,-7 16,-9 61,-16 76,-12 3,1 3,1 6,1 4,1 6,2 9,5 8,6 11,4 16,27 5,22 -3,22 -3,39 2,1 5,1 6,4 0,1 0,8 0,8l5 0c2,-3 3,-5 5,-8 6,-14 7,-11 8,-15 4,-10 4,-21 4,-32 0,-4 0,-9 0,-12 -1,-6 -1,-3 -3,-9 -5,-13 -10,-19 -19,-29 -9,-9 -35,-22 -47,-24 -7,-1 -13,-1 -21,-3 -23,-4 -55,1 -78,5 -24,5 -16,3 -38,10l-28 8c-3,1 -5,1 -8,3 -3,2 -4,3 -8,5l-35 13c-3,1 -4,2 -7,4 -16,10 -41,20 -55,31l-14 9c-3,2 -6,3 -8,4 -5,4 -1,3 -6,6l-21 14c-11,12 -9,5 -16,13 -3,3 0,1 -3,3 -7,6 -1,-2 -14,11l-25 21c0,0 -2,1 -2,2z"/>
       <path class="fil2" d="M3688 5586l5 5c-3,2 -4,3 -5,8 -6,-1 -3,-1 -9,0 -2,1 -9,9 -11,11 -2,3 -2,2 -2,4 1,4 -2,3 2,3 -5,7 -2,5 -2,6 -1,2 -12,13 -12,5 -5,2 -2,0 -7,4 -2,2 -3,3 -5,5 -4,4 -6,6 -10,10l-15 15c-2,2 -3,2 -6,5 -2,2 -3,3 -5,5 -3,3 -3,4 -5,6 -3,3 -8,5 -12,9l-46 37c-2,2 -3,3 -5,5 -9,7 -41,31 -48,34 -13,6 -6,9 -23,9 -4,8 -9,7 -22,13 -2,1 -3,2 -5,3 -7,5 0,2 -13,6 -3,1 -3,1 -8,1 0,-5 4,-11 8,-15 6,-7 27,-29 33,-39 5,-9 6,-6 12,-12 8,-9 4,-4 13,-11 8,-6 6,-12 16,-19 3,-2 4,-3 8,-6 -2,-3 -1,-5 -2,-8 5,1 8,0 6,-5 4,1 3,0 5,3 5,-9 17,-14 28,-24 17,-16 35,-27 54,-41 -1,-4 -1,1 -2,-6 9,1 1,1 8,2l31 -20 41 -21c0,0 3,-2 3,-2 0,0 1,-1 1,-1 6,-4 8,-5 17,-5 -1,15 -12,14 -12,22zm185 -17c9,4 -1,-4 3,2 4,6 0,-4 0,2l-6 9c0,0 0,1 -1,1l-5 -4c0,-1 -1,0 -1,-1 -2,0 -1,-3 -8,7 -5,8 -13,18 -20,26 -5,7 -2,2 -2,6 0,3 0,2 1,5 0,0 1,1 1,2l-4 3c0,0 -1,1 -1,1 -3,3 1,4 -8,7 2,4 -3,-1 2,2l3 2c-4,4 5,3 -5,3 -1,1 -1,-1 -6,-2 -4,10 -3,2 -14,17 -12,16 -6,11 -13,20 -13,19 -12,13 -25,25 -10,10 -28,21 -28,21 -3,2 -5,6 -8,9 -4,4 -7,3 -10,7 -3,4 2,2 -9,7 -6,3 -3,2 -7,6l-69 51c-5,6 -3,3 -10,7 -6,4 -2,4 -9,8 -6,4 -8,3 -14,8 -12,10 -7,3 -20,14l-6 4c-4,2 -29,21 -34,24l-8 4c-2,1 -1,1 -3,2 -8,5 -3,1 -4,4l0 6c-11,2 -4,7 -14,5 -2,7 3,5 -8,5 -2,10 0,0 -5,8 -4,-1 -4,-1 -9,-2 -3,-2 -1,-2 -11,3 -9,5 -5,5 -14,8 -29,10 -28,13 -45,20 -3,1 -5,1 -9,2 -10,2 -29,8 -35,8 -7,0 -13,-3 -18,-5 -18,-7 -13,-16 -7,-36 1,-4 2,-5 3,-7 1,-3 1,-5 3,-8 2,-6 9,-16 12,-22 4,-6 5,-11 8,-14 3,-4 3,-1 6,-5 8,-9 6,-13 21,-13 5,0 30,-5 37,-7l25 -8c4,-1 2,-2 8,-3 18,-6 12,0 31,-12 13,-8 24,-9 38,-18l10 -5c2,-1 2,-1 4,-2 4,-2 3,-2 7,-4 8,-3 6,-5 13,-9l15 -8c3,-2 3,-3 6,-5l20 -13c5,-3 8,-6 13,-9 6,-4 9,-6 15,-10 2,-3 1,-5 2,-8 4,2 1,0 8,0 -2,-5 -1,2 -2,-6 7,1 3,2 9,0 3,-3 7,-7 11,-10 5,-4 6,-4 10,-9 2,-2 3,-2 5,-4 0,0 1,0 1,-1 0,0 1,-1 1,-1 10,-10 6,-5 14,-12 4,-3 6,-7 8,-10l11 -14c0,0 1,-1 1,-1 14,-14 25,-32 30,-51 5,-22 -1,-34 -15,-49 -3,-3 -18,-15 -22,-17 -2,-1 -5,-1 -7,-2 -15,-6 -12,-14 -54,-9 -7,1 -26,4 -32,7 -11,5 -2,2 -14,4 -11,2 -23,9 -29,10 -13,3 -7,3 -27,12 -3,1 -2,1 -6,3 -3,1 -4,2 -7,3 -24,10 -9,3 -32,16 -2,1 -4,2 -6,3 -4,2 -8,4 -11,8 0,6 0,5 -2,9 -6,2 0,1 -5,-2 -3,9 3,9 -11,9 0,-3 1,0 -3,-2 -2,0 -1,-3 -10,6 -4,4 -5,7 -9,10l-22 20c0,0 -1,1 -1,1l-74 60c0,0 -1,1 -1,1l-3 3c-5,4 -5,6 -8,10 -1,2 0,0 -2,2 -14,14 -4,6 -13,15 -5,4 -6,8 -11,13 -10,11 -10,16 -15,21 -1,2 -4,3 -5,5 -2,4 0,3 -3,7 -1,2 -3,3 -5,5 -4,5 -9,11 -11,17 -3,6 -5,7 -8,11l-7 12c-1,2 -5,11 -6,13 -2,5 -3,8 -5,14l-10 28c-1,4 -1,1 -3,7 -6,23 -9,54 1,74l6 0c2,8 -1,-2 6,6 -3,1 -1,-1 -2,5 6,-2 -1,0 8,0 -3,10 1,3 2,12 3,2 2,0 -2,2l2 2c15,14 39,25 60,25 46,0 50,-7 59,-8 16,-1 21,-6 38,-12l28 -12c4,-2 4,-3 6,-4l12 -5c8,-3 19,-10 26,-15l22 -13c4,-2 4,-2 7,-4 7,-6 10,-3 15,-8 11,-10 0,-1 13,-10l33 -23c14,-11 21,-15 35,-27l6 -5c5,-4 12,-7 16,-12 4,-4 8,-7 12,-11 8,-6 33,-25 37,-30 3,-4 1,-2 5,-6 3,-2 3,-3 7,-6l18 -17c4,-4 4,-2 5,-6 0,-1 0,-2 3,-6 3,-5 1,-2 8,-5 1,0 -4,-2 6,-2 -6,-2 -2,1 -3,-8l123 0 5 8c0,-2 9,-16 11,-17 13,-11 2,-1 13,-18 2,-4 3,-5 6,-8 0,0 1,-1 1,-1 0,0 1,-1 1,-1l5 -7c5,-7 3,-1 7,-9 9,-17 6,-3 12,-18 2,-5 6,-5 13,-18 1,-2 5,-8 6,-9 6,-6 3,-1 11,-12l18 -22c4,-3 -3,1 2,-8 2,-4 7,-7 8,-9 12,2 -3,1 8,3 7,-4 9,-5 19,-5l4 -1c0,0 1,0 1,0l2 -1c1,-3 0,-4 0,-8l3 0c0,-7 -1,-8 -6,-18 0,-1 -1,-2 -2,-3 -1,-2 -2,-3 -3,-6 -12,-16 -18,-25 -35,-35l-10 -6c-6,-3 -18,-8 -25,-7 -20,4 -11,2 -32,19 -8,7 -9,10 -12,13 -7,7 -18,15 -20,25z"/>
       <path class="fil2" d="M5258 5578c-1,0 -2,0 -4,3 0,0 0,0 0,0 0,0 0,0 0,0 -8,2 -3,1 -5,0 -6,1 -28,14 -33,19 -6,6 -38,25 -54,40 -6,6 -11,6 -15,13 -11,13 -7,8 -17,16 -6,1 -1,0 -4,2 0,0 -1,0 -1,1 -6,3 -3,1 -7,5 0,0 -2,2 -3,2 -3,2 -3,3 -5,6 -4,13 -6,9 -8,9 -5,3 -5,2 -9,7l-4 5c0,0 -1,1 -1,1 -8,7 -7,7 -14,14l-25 29c-13,19 -22,21 -39,38l-12 11c-13,11 -3,5 -16,15l-14 9 -15 16c-5,5 -6,3 -10,5 -7,5 3,2 -16,15 -5,3 -18,16 -26,20 -26,14 -2,4 -23,16 -12,7 -10,9 -24,15 -6,2 -5,2 -10,5 -5,4 -5,3 -14,3 0,-12 6,-16 10,-25 1,-3 9,-22 9,-25 1,-9 2,-1 -2,-8l5 2c4,-3 3,4 3,-3l17 -24c4,-7 27,-41 29,-44 4,-4 4,-4 7,-9 -40,-4 -85,-2 -126,-2l0 8 -8 0c-4,7 -1,4 -6,6 -7,14 -6,8 -14,27 -2,6 -5,8 -7,13 -3,10 -11,21 -14,31 -7,19 -22,61 -14,79 4,10 9,18 16,26 0,0 1,1 1,1 7,8 3,2 11,11 9,10 24,15 41,15 10,0 8,-1 15,-3 20,-6 25,-12 34,-16 6,-3 22,-13 27,-18 1,-1 3,-2 3,-3 5,-4 8,-3 12,-8l33 -28c5,-3 4,-1 8,-6 7,-8 5,-6 14,-12 6,-4 6,-4 10,-10 6,-8 30,-20 30,-29l5 -3c-1,-1 1,0 1,0l4 3c-2,5 -2,2 0,8 -5,2 -1,0 -3,5l-3 0c-4,11 -5,5 -5,20 0,15 -3,27 10,46 7,11 3,9 14,22 0,0 1,1 1,1l5 6c3,5 13,16 18,18 2,1 15,6 19,6 7,1 23,-3 29,-5 2,-1 6,-4 8,-5l30 -18 49 -34c5,-3 1,-3 8,-6l0 -6c6,-4 5,6 5,-6l6 5c2,-4 3,-4 6,-7 4,-1 8,-3 11,-7 13,-12 2,1 15,-13 6,-6 7,-2 17,-12 12,-12 16,-11 21,-17 4,-5 6,-5 12,-10l9 -8c5,-3 4,1 8,-6l3 -4c5,-6 25,-20 30,-26 4,-5 12,-8 16,-12 4,-4 6,-7 14,-14 3,-3 5,-3 9,-10l5 -3 -2 -8c1,6 0,0 2,5l5 -4c0,0 0,0 0,1l5 0c0,-1 2,-3 3,-3 2,-4 1,2 1,-3 5,-7 11,-13 17,-14 1,0 1,-1 2,-1 0,0 2,-1 3,-1 4,0 -1,-5 2,2 5,-2 2,1 5,-3 -10,0 -5,1 -6,-3 3,0 10,-2 12,-3 5,-1 10,0 15,0 21,0 70,-1 88,0l8 2c0,1 1,0 -1,3l3 2c1,-3 11,-17 14,-20 5,-4 7,-4 12,-11 -3,-11 -12,-25 -16,-32 -5,-9 -7,-7 -15,-17l-16 -14c-9,-7 -18,-8 -31,-5 -12,3 -22,13 -29,21 -4,3 -3,2 -7,4 -9,4 -7,6 -13,11 -3,3 0,0 -3,3l-3 3c-16,14 -6,2 -27,23 -9,10 -26,17 -34,27 -4,5 -3,2 -7,6 -4,4 -1,4 -13,12l-40 33c-3,3 -3,3 -7,6l-13 10c-3,2 -4,4 -6,6l-15 10c-6,4 -7,7 -14,11 -6,3 -6,3 -10,7 0,0 -1,1 -1,1 0,0 -3,2 -4,3l-29 19c-4,2 -3,3 -7,6 -4,2 -4,2 -8,5 -3,3 -4,2 -8,5l-29 19c-3,2 -3,3 -8,5 -11,6 -15,11 -28,16 -3,1 -2,0 -5,2 0,-14 2,-7 8,-23 1,-2 1,-3 2,-5 2,-3 0,-1 3,-5 4,-6 3,-4 5,-10l23 -40c4,-5 2,-1 3,-6 6,-1 1,0 6,-3 4,-2 3,-3 5,-7 2,-3 4,-6 6,-9 2,-2 2,-2 3,-3 9,-13 7,-7 11,-13 -4,0 -2,1 -3,-2 7,-1 0,1 5,-5 -3,-1 0,-1 -5,-2 11,0 8,0 8,-6l5 0c8,1 -3,-1 12,-12 8,-6 1,-3 10,-12 15,-14 4,-8 15,-17 13,-11 13,-15 18,-19 2,-1 3,-2 4,-2 3,-2 3,-2 6,-5l10 -12c5,-4 3,-1 12,-10 7,-7 26,-20 30,-24l17 -15c4,-2 2,0 8,-6 0,0 1,-1 1,-1 0,0 3,-2 4,-3 3,-2 5,-2 7,-3 5,-3 25,-20 32,-23 11,-5 27,-17 42,-23 3,-1 4,-2 8,-3l30 -13c7,-4 17,-6 25,-7 18,-3 48,-10 65,-2 2,1 4,3 7,4 5,3 9,6 11,11 18,38 -1,50 -1,71 8,1 12,3 20,-9l-5 -2c4,-2 3,-6 5,-11 0,0 -5,0 1,1 0,0 1,0 1,0 0,0 1,0 2,0l1 -4c3,-5 3,-5 5,-12 1,-5 3,-7 3,-13 1,-13 -1,-19 -3,-28l-10 -21 -18 -15c-4,-2 -7,-4 -10,-6l-5 -3c-3,-1 -4,-1 -6,-2 -10,-4 -7,-5 -23,-8 -26,-4 -45,-6 -73,-1l-27 4c-13,2 -15,3 -25,6 -18,5 -30,7 -48,16l-21 10c-8,4 -12,4 -22,9 -5,3 -4,3 -9,6l-16 8c-7,4 -3,1 -6,5z"/>
       <path class="fil2" d="M6153 5743c0,2 1,1 -1,2 -9,7 -3,2 -5,1 -1,4 -2,6 -4,10 -5,9 -17,23 -20,31 -4,11 -5,8 -12,21 -2,3 -1,2 -3,5 -4,5 -6,13 -9,18l-8 15c-1,2 -2,5 -3,6 -7,14 -5,10 -10,24 -7,18 -13,38 -9,58 1,5 1,8 3,12 3,7 8,16 13,21 5,5 4,5 7,10 5,7 11,9 18,15 5,4 6,4 12,5 24,3 45,-6 65,-18 4,-2 6,-4 10,-7 7,-4 5,-2 12,-8 6,-5 15,-9 18,-13 8,-8 4,-1 13,-14 3,-5 10,-7 12,-12l11 0 51 -46c7,-6 22,-19 27,-26 5,-6 1,-4 8,-7 7,-4 9,-11 23,-22 5,-4 4,-2 8,-7 5,-6 16,-17 22,-23l8 -7c6,-6 6,-9 11,-12l16 -15c0,0 1,-1 1,-1l53 -57c4,-3 6,-3 8,-7 2,-3 4,-8 5,-10 -3,-6 -3,-11 -15,-9 -4,1 -5,2 -9,4 -11,8 -12,10 -20,19l-3 3c-6,7 -2,3 -11,9 -14,10 -1,4 -20,18 -3,2 -6,4 -8,6 -6,5 -2,6 -12,14l-15 13 0 6c-5,4 6,-3 -3,0 -5,2 -3,0 -4,5 -5,0 -4,1 -4,-2 -4,5 -19,16 -23,21l-4 4c0,0 -1,1 -1,1l-7 5c-15,14 -3,5 -24,21l-19 16c-5,6 -24,21 -30,26l-26 19c-13,9 -24,20 -37,25 -2,1 -2,1 -4,2 -9,6 4,2 -14,8 -9,3 -3,6 -18,6 1,-7 4,-12 7,-18 4,-12 10,-24 17,-34 9,-13 4,-9 9,-17 4,-7 3,0 7,-11 4,-10 13,-18 18,-27 2,-5 2,-5 5,-9 3,-5 8,-11 10,-17l-2 -2c9,-6 -1,6 2,-3 0,0 0,-2 0,-2 4,0 8,0 5,-3 0,3 0,2 3,2 3,-5 5,-8 8,-13 4,-6 4,-9 9,-14 4,-4 6,-8 9,-12l28 -40c4,-3 3,0 5,-5 4,-8 9,-15 16,-22 -2,-5 -2,-2 0,-6l-116 0c-1,-1 -1,-4 -2,-5 10,0 1,1 5,-3l0 -6c-6,0 1,-2 -7,7l-33 43c-5,10 -12,18 -19,28 -5,7 -6,7 -7,14z"/>
       <path class="fil2" d="M5853 5366c-1,6 -1,0 -2,8 -9,0 -4,-1 -8,3l-6 5c4,7 -4,0 5,5 0,-1 1,-3 -2,-1l0 2c-2,4 -5,5 -5,5 0,-3 1,0 -3,-2 -3,5 -2,4 -5,7 -3,4 -3,4 -4,10 2,10 -2,1 0,9 -4,1 -3,1 -9,6l-11 23c-13,31 -2,83 40,68 7,-2 5,-6 8,-11 3,-5 4,-3 11,-12l2 -3c2,-2 2,-3 4,-5l11 -7c9,-7 -2,-2 16,-16 4,-3 9,-7 11,-11 2,-2 1,-1 3,-3l4 -3c6,-4 4,-4 10,-10l2 -2c0,0 -5,1 2,4l5 0c3,-4 10,-8 17,-8 11,0 -2,0 7,-3 2,-1 6,-1 9,-1l0 -3c-2,-13 -5,-17 -12,-24 -8,-8 -14,-21 -30,-29 -6,-3 -9,-7 -14,-9 -6,-3 -9,-5 -18,-5 -24,0 -21,1 -36,12z"/>
       <path class="fil2" d="M3252 5717c-1,-4 2,-3 -2,-3 0,-3 1,0 -3,-2 -7,10 -11,7 -11,22 5,-1 6,-3 9,-7 3,-5 6,-5 7,-10z"/>
       <path class="fil2" d="M5002 5644l-5 0c0,-1 0,-8 0,-8 -1,-3 -4,-3 -6,-4 -2,2 -2,3 -3,6 -1,3 -2,6 -1,8 3,5 12,2 14,-2z"/>
      </g>
     </g>
    </g>
   </g>
  </g>
  <polygon class="fil3" points="920,2633 7347,2633 7347,9060 920,9060 "/>
 </g>
</svg>
